<?xml version="1.0" encoding="UTF-8" standalone="no"?>
<svg
   xmlns:dc="http://purl.org/dc/elements/1.1/"
   xmlns:cc="http://creativecommons.org/ns#"
   xmlns:rdf="http://www.w3.org/1999/02/22-rdf-syntax-ns#"
   xmlns:svg="http://www.w3.org/2000/svg"
   xmlns="http://www.w3.org/2000/svg"
   xmlns:sodipodi="http://sodipodi.sourceforge.net/DTD/sodipodi-0.dtd"
   xmlns:inkscape="http://www.inkscape.org/namespaces/inkscape"
   viewBox="0 0 640 512"
   version="1.1"
   id="svg4"
   sodipodi:docname="bezier-curve-solid.svg"
   inkscape:version="0.92.3 (2405546, 2018-03-11)">
  <metadata
     id="metadata10">
    <rdf:RDF>
      <cc:Work
         rdf:about="">
        <dc:format>image/svg+xml</dc:format>
        <dc:type
           rdf:resource="http://purl.org/dc/dcmitype/StillImage" />
      </cc:Work>
    </rdf:RDF>
  </metadata>
  <defs
     id="defs8" />
  <sodipodi:namedview
     pagecolor="#ffffff"
     bordercolor="#666666"
     borderopacity="1"
     objecttolerance="10"
     gridtolerance="10"
     guidetolerance="10"
     inkscape:pageopacity="0"
     inkscape:pageshadow="2"
     inkscape:window-width="815"
     inkscape:window-height="480"
     id="namedview6"
     showgrid="false"
     inkscape:zoom="0.4609375"
     inkscape:cx="320"
     inkscape:cy="256"
     inkscape:window-x="4338"
     inkscape:window-y="827"
     inkscape:window-maximized="0"
     inkscape:current-layer="svg4" />
  <!--! Font Awesome Pro 6.4.0 by @fontawesome - https://fontawesome.com License - https://fontawesome.com/license (Commercial License) Copyright 2023 Fonticons, Inc. -->
  <path
     d="M296 136V88h48v48H296zM288 32c-26.5 0-48 21.5-48 48v4H121.6C111.2 62.7 89.3 48 64 48C28.7 48 0 76.7 0 112s28.7 64 64 64c25.3 0 47.2-14.7 57.6-36h66.9c-58.9 39.6-98.9 105-104 180H80c-26.5 0-48 21.5-48 48v64c0 26.5 21.5 48 48 48h64c26.5 0 48-21.5 48-48V368c0-26.5-21.5-48-48-48h-3.3c5.9-67 48.5-123.4 107.5-149.1c8.6 12.7 23.2 21.1 39.8 21.1h64c16.6 0 31.1-8.4 39.8-21.1c59 25.7 101.6 82.1 107.5 149.1H496c-26.5 0-48 21.5-48 48v64c0 26.5 21.5 48 48 48h64c26.5 0 48-21.5 48-48V368c0-26.5-21.5-48-48-48h-4.5c-5-75-45.1-140.4-104-180h66.9c10.4 21.3 32.3 36 57.6 36c35.3 0 64-28.7 64-64s-28.7-64-64-64c-25.3 0-47.2 14.7-57.6 36H400V80c0-26.5-21.5-48-48-48H288zM88 376h48v48H88V376zm416 48V376h48v48H504z"
     id="path2"
     style="fill:#00ffff" />
</svg>
