<svg enable-background="new 0 0 1024 1023" version="1.1" viewBox="0 0 1024 1023" xmlns="http://www.w3.org/2000/svg">
 <g transform="translate(-15.511 -15.511)">
  <path d="m1025 468.75c-0.3166 0.046-0.4-0.22119-0.125-0.65073 0.125-0.09927 0.125 0.40073 0.125 0.65073z"/>
  <path d="m230.3 277.59c1.617-3.1384 3.6872-6.1272 4.7805-9.4386 10.312-31.232 21.312-62.274 30.35-93.876 5.9911-20.947 17.261-38.37 30.069-55.21 12.264-16.124 24.783-32.06 37.514-47.816 1.9944-2.4683 5.5138-4.3846 8.6661-5.1339 39.992-9.506 80.602-14.204 121.64-16.353 46.09-2.4135 91.269 3.5996 136.52 11.197 24.239 4.0698 45.564 14.642 66.47 26.03 35.941 19.577 71.523 39.898 106.45 61.223 28.509 17.406 55.912 36.633 83.669 55.258 10.938 7.3396 19.401 16.809 25.219 28.976 5.1666 10.805 12.193 20.704 17.84 31.301 5.8279 10.937 11.109 22.173 16.401 33.386 8.73 18.499 17.37 37.042 25.84 55.661 2.3993 5.2747 4.408 10.788 5.9298 16.373 0.68316 2.5074-0.26703 5.4618-0.48712 8.2126-0.0919 1.1483-0.3924 2.3105-0.29017 3.4385 0.54529 6.0183 1.4226 12.016 1.7342 18.044 0.34356 6.6496 0.1936 13.324 0.26843 19.988 0.0703 6.2595-1.2145 12.12-4.2188 17.72-26.133 48.712-51.871 97.639-78.397 146.14-9.9709 18.23-21.704 35.496-33.062 53.66-5.5732 7.8879-10.718 15.317-15.862 22.746-1.467 1.9502-2.934 3.9006-4.8127 6.3144-1.2172 1.719-2.0228 2.9745-2.8282 4.23 6e-5 6e-5 -0.0556 0.0228-0.33105 0.19916-0.78424 1.064-1.293 1.9515-1.8018 2.839-0.26898 0.13257-0.47693 0.32953-0.99524 0.93451-0.91919 1.2559-1.4672 2.1682-2.0151 3.0804-0.73083 0.85346-1.4617 1.7068-2.4507 2.8674-0.25818 0.30719-0.17224 0.0711-0.17224 0.0711-0.26136 0.44818-0.52271 0.89636-1.2584 1.8074-0.86737 1.1588-1.2604 1.8548-1.6534 2.5508-0.34265 0.39691-0.68524 0.79383-1.3972 1.5424-0.49597 0.69116-0.62249 1.0306-0.74902 1.3701-6e-5 0 0.11188 0.0577-0.22107 0.1814-1.3988 1.7316-2.4647 3.3397-3.5305 4.9478 0 0-0.28242 0.22888-0.65565 0.5661-3.3846 2.5501-6.396 4.7631-9.8792 7.3228 2.8196 2.2142 4.6075 3.618 6.3953 5.0219 0.23346 0.24121 0.46692 0.48242 0.94159 1.1891 1.133 1.6609 2.0248 2.8563 2.9166 4.0516 0 0 0.14081 0.40424 0.32758 0.85205 0.66455 1.0428 1.1423 1.6378 1.62 2.2328 0.2649 0.45727 0.52979 0.91455 1.0057 1.8215 0.46259 0.70416 0.71405 0.95868 0.96546 1.2132 0 0 0.1231 0.35736 0.30273 0.82812 1.6711 2.6723 3.1625 4.8738 4.6539 7.0753 0 0 0.2699-0.16693 0.15704 0.16632 0.0321 0.65705 0.27875 0.85272 0.62714 0.92023 0 0 0.0161 0.13043 0.0686 0.33185 0.14014 0.4718 0.3255 0.61962 0.60865 0.64489 0 0 0.10296 0.3205 0.26275 0.39624 0.15985 0.0758 0.0868 0.11054 0.0868 0.11054 4.7654 8.3314 4.8748 8.4782-3.1285 14.444-24.166 18.013-50.451 32.244-78.365 43.534-9.1081 3.6839-18.266 7.2625-27.246 11.242-13.173 5.8373-26.592 9.6769-41.26 9.8843-18.249 0.25793-36.493 1.651-54.712 2.943-19.347 1.372-38.08-1.7607-56.684-6.5539-36.589-9.4266-73.149-18.974-109.85-27.94-7.6185-1.8612-12.697-6.4897-18.445-10.971-9.5722-7.4639-19.799-14.081-29.593-21.269-41.089-30.154-77.439-65.304-107.77-106.21-24.477-33.007-47.446-67.135-70.939-100.87-7.605-10.919-14.906-22.06-21.984-33.326-1.4505-2.309-1.9379-5.6765-1.7596-8.4857 1.9388-30.536 3.88-61.076 6.2824-91.578 1.3954-17.717 3.6281-35.368 5.5425-53.605 3.7486 0 7.2744-0.47135 10.619 0.10632 5.5442 0.95758 7.6308-2.418 8.7524-6.5454 2.0029-7.3708 3.5911-14.86 5.137-22.345 0.35359-1.7118-0.1691-3.6045 0.25431-5.9882 1.1475-1.3371 2.1026-2.0178 2.3037-2.8752 2.6055-11.11 4.3083-22.477 9.6095-32.797m150.49 165.05c2.0005 5.6366 3.752 11.377 6.0523 16.889 5.1246 12.279 10.64 24.395 15.744 36.682 1.661 3.9986 4.206 6.549 8.4364 6.6461 8.1136 0.18616 16.316 0.70218 24.337-0.20288 15.137-1.708 26.117-10.042 32.582-23.79 3.77-8.0177 4.9816-16.45 1.7718-25.183-1.8866-5.1329-3.4354-10.418-4.741-15.731-5.1239-20.853-10.052-41.755-15.141-62.616-1.412-5.7878-1.127-6.348 4.8351-6.3576 20.963-0.0335 41.927-0.11193 62.889-3e-3 4.1185 0.0214 6.1887-1.6437 7.8616-5.3707 5.4678-12.182 3.3844-24.167-0.49877-36.061-3.471-10.631-7.022-12.198-18.149-11.491-19.755 1.255-39.545 2.0048-59.329 2.7359-6.3762 0.23563-7.6961-1.0924-8.2613-7.3339-1.74-19.214-3.97-38.413-4.8399-57.671-1.2772-28.274-2.0567-56.594-1.9806-84.892 0.0296-11.005-1.6306-20.409-10.363-27.51-2.1016-1.709-5.0972-3.5412-7.5559-3.3814-11.936 0.77574-24.026 1.2637-35.682 3.681-11.302 2.3438-23.736 4.236-29.565 16.75-2.9106 6.2478-7.3861 12.5-7.8933 19.005-1.9986 25.632 0.9375 51.173 4.0958 76.602 2.2126 17.815 5.1553 35.538 7.6533 53.319 1.0225 7.278 0.23446 8.4419-7.1474 9.4666-7.3986 1.0271-14.859 1.8162-22.317 2.1664-18.624 0.87451-37.264 1.4128-55.895 2.1447-7.289 0.28632-8.9231 2.5018-9.8706 9.7514-1.687 12.907 6.2136 21.201 13.535 29.825 0.80853 0.9524 2.664 1.3322 4.0654 1.4102 5.982 0.33304 11.975 0.58121 17.966 0.62735 20.496 0.1579 40.992 0.331 61.487 0.22641 4.5196-0.0231 6.5346 1.4672 7.3544 5.956 2.2102 12.103 4.3871 24.244 7.4032 36.16 3.1371 12.394 7.2408 24.544 11.161 37.552m350.7 29.26c5.3523-2.855 10.705-5.71 16.53-8.8173 3.4075 14.674 7.2472 28.482 9.7152 42.531 3.0416 17.314 5.1226 34.807 7.2809 52.264 1.9797 16.012 3.528 32.078 5.2244 48.125 0.35638 3.3713 1.8397 5.3337 5.4735 4.7036 8.4234-1.4606 16.842-2.9519 25.237-4.5652 1.035-0.19898 2.2509-1.0031 2.8115-1.8887 6.8837-10.873 13.731-21.771 20.397-32.778 1.1235-1.8554 2.1007-4.3531 1.8488-6.394-1.2681-10.274-2.7029-20.542-4.5634-30.724-5.34-29.224-12.992-57.87-23.324-85.713-2.8374-7.6466-4.4406-16.724-13.066-20.838-2.7865-1.3292-6.0752-1.5824-9.1069-2.4259-5.53-1.5386-10.951-3.8412-16.579-4.5641-7.7388-0.99396-15.185-2.1701-21.825-6.6488-1.1022-0.7434-3.254-0.82122-4.5287-0.28118-12.925 5.4759-26.067 10.555-38.562 16.9-17.696 8.9851-35.21 18.422-52.218 28.638-15.59 9.3644-31.412 18.672-43.639 32.665-2.2967 2.6284-4.5799 5.4862-7.4449 7.3567-6.6672 4.353-8.3219 10.774-8.5424 17.99-0.10681 3.4961-9e-3 6.9981-0.0288 10.497-0.0416 7.2594 7.8962 12.269 14.467 9.1287 30.059-14.364 60.154-28.652 90.165-43.116 14.627-7.0499 29.097-14.426 44.278-22.044m-272.47 223.61c7.902 2.6207 15.686 5.7072 23.735 7.7453 10.274 2.6015 20.746 4.4449 31.18 6.3524 1.1702 0.21387 3.3015-0.92914 3.89-2.0296 6.977-13.047 13.672-26.245 20.595-39.321 4.4184-8.3446 9.2071-16.495 13.511-24.896 0.52539-1.0256-0.46179-3.8766-1.5465-4.5065-7.1879-4.1736-14.358-8.5217-21.971-11.794-27.658-11.886-55.511-23.319-83.228-35.069-3.5093-1.4877-6.1129-1.058-8.3429 1.8303-1.2091 1.566-2.482 3.1885-3.2239 4.9921-4.2905 10.429-8.264 20.992-12.672 31.37-4.0696 9.5814-8.7296 18.914-12.712 28.529-0.87564 2.1141-0.96158 5.7038 0.27719 7.3197 3.1361 4.0908 6.6432 8.5652 11.054 10.884 12.627 6.6379 25.776 12.282 39.453 18.593m-175.5-183.44c10.614-10.309 21.186-20.661 31.871-30.896 2.6942-2.581 2.8574-4.389 0.23581-7.4414-4.9509-5.7646-9.511-11.916-13.747-18.233-13.953-20.807-24.788-43.621-41.083-62.953-6.0879-7.2227-11.06-15.385-16.552-23.111-2.9031-4.0833-3.8684-4.0806-6.6941 0.28864-2.977 4.6032-6.2616 9.0815-8.628 13.992-8.5148 17.669-16.801 35.451-24.867 53.328-0.91633 2.0308-0.77859 5.492 0.38726 7.3252 3.2625 5.1301 7.3285 9.7481 11.063 14.58 11.079 14.336 21.994 28.803 33.293 42.964 5.7739 7.2363 12.189 13.966 18.442 20.808 0.68905 0.75397 2.7674 1.3945 3.2797 0.9715 4.297-3.5483 8.3786-7.3574 13.001-11.621m376.93 221.93c0.74555-2.7258 1.5045-5.4481 2.2343-8.178 3.3018-12.35 6.5175-24.724 9.9459-37.039 0.86267-3.0986-0.46479-4.3308-3.0375-5.1008-16.403-4.9101-32.784-9.8966-49.216-14.705-11.585-3.3902-23.24-6.5398-35.776-10.052-0.98773 3.1105-2.256 6.9347-3.4177 10.791-6.2743 20.828-12.492 41.673-18.81 62.487-1.0128 3.3366-0.2038 5.7059 3.1059 6.6993 8.5519 2.5667 17.079 5.2963 25.767 7.3135 18.61 4.3211 37.326 8.186 55.972 12.352 3.9339 0.87909 6.34 0.0157 7.4182-4.168 1.6973-6.5858 3.6781-13.099 5.8139-20.4m-311.88-116.08c4.7667 4.1396 9.606 8.1992 14.283 12.438 6.7219 6.0925 6.8383 6.2478 11.479-1.539 11.757-19.729 23.293-39.591 35.076-59.304 1.6042-2.6838 1.5625-4.4152-0.83145-6.3629-2.9638-2.4114-5.8106-4.9715-8.6423-7.5397-13.679-12.406-27.299-24.877-41.023-37.232-3.9153-3.5246-8.1112-6.7375-12.639-10.474-1.718 2.2935-3.2053 4.0346-4.4254 5.9463-10.548 16.527-20.826 33.232-31.717 49.528-2.7296 4.0838-3.0753 6.8963 0.0295 10.401 0.98801 1.1152 1.6615 2.5084 2.6456 3.6277 11.738 13.353 23.508 26.678 35.767 40.511m356.56 66.414c-1.3288 5.2739-2.7935 10.518-3.9618 15.827-4.0359 18.342-7.7888 36.749-12.038 55.041-1.4904 6.4164-0.20557 9.9288 6.2396 10.54 5.8798 0.55798 11.971 0.72467 17.779-0.16876 12.59-1.9366 25.061-4.6466 37.574-7.0778 2.1213-0.41211 4.488-0.56128 6.2278-1.6516 1.699-1.0647 3.6599-3.0425 3.9273-4.8527 2.4098-16.315 4.4389-32.685 6.6527-49.03 0.888-6.5563-0.41455-8.5199-7.1318-9.8832-6.1936-1.257-12.38-2.585-18.616-3.5912-11.937-1.9261-23.906-3.6459-36.653-5.1533z"/>
  <path d="m957.64 767.95c-5.951 10.547-11.462 21.485-18.548 31.284-16.792 23.222-34.222 45.932-54.102 66.751-18.652 19.533-38.456 37.619-60.119 53.689-11.291 8.376-22.381 17.107-34.23 24.626-13.459 8.541-27.512 16.191-41.595 23.687-9.9392 5.2905-20.186 10.1-30.604 14.372-15.284 6.2675-30.769 12.07-46.313 17.671-10.133 3.6516-20.41 7.0212-30.826 9.7384-11.03 2.8774-22.421 4.3786-33.433 7.3105-12.521 3.3337-25.203 3.8463-38.462 4.0568-7.9049-0.6834-15.619-0.4033-22.712-2.3662-21.406-5.9239-42.675-12.396-63.8-19.264-22.37-7.2722-44.653-14.865-66.716-23.013-22.902-8.4581-45.578-17.55-68.2-26.74-17.53-7.1209-34.891-14.67-52.207-22.302-17.764-7.8292-35.523-15.696-53.01-24.117-10.311-4.9654-20.482-10.449-29.987-16.792-8.3662-5.5828-15.69-12.72-23.539-19.09-2.0224-1.6415-4.6576-2.6476-6.3676-4.5303-3.9637-4.364-8.0286-8.7739-11.151-13.733-5.0301-7.988-9.4577-16.368-13.886-24.716-1.9334-3.6448-3.0875-7.6942-4.8567-11.436-10.375-21.945-21.188-43.691-31.133-65.828-7.1321-15.876-13.696-32.061-19.502-48.466-6.9113-19.529-13.018-39.357-18.962-59.209-6.1794-20.636-12.11-41.363-17.44-62.231-2.8636-11.21-4.2243-22.803-6.2933-34.218-1.2691-7.0021-2.716-13.974-3.8714-20.994-2.586-15.712-5.2789-31.413-7.4777-47.181-2.058-14.758-3.4274-29.611-5.3078-44.396-1.1589-9.1124 1.6839-17.405 4.8301-25.602 3.7457-9.7594 7.7641-19.42 11.914-29.016 2.9597-6.8426 6.0482-13.659 9.5795-20.219 7.2393-13.446 14.488-26.908 22.35-39.993 6.902-11.486 14.417-22.628 22.114-33.604 4.0808-5.8194 9.1246-10.964 14.145-16.785 2.706 0.53387 5.1696 1.1542 7.2674 2.3936 13.273 7.8422 26.483 15.793 39.657 23.801 1.3097 0.79611 2.2394 2.2175 3.3454 3.3487-6.6027 11.883-13.313 23.707-19.758 35.675-2.7484 5.1038-5.2337 10.393-7.3327 15.794-6.2555 16.098-12.443 32.228-18.304 48.472-4.5489 12.606-9.0708 25.269-12.546 38.191-1.1828 4.3982 0.0131 9.9586 1.5817 14.482 6.1344 17.688 12.601 35.273 19.464 52.691 3.2748 8.3108 7.7445 16.148 11.624 24.224 7.755 16.142 15.23 32.425 23.32 48.397 3.7926 7.4885 8.8302 14.338 13.147 21.571 6.6255 11.103 12.822 22.472 19.73 33.393 10.885 17.208 21.816 34.413 33.46 51.109 11.178 16.028 22.903 31.714 35.117 46.967 9.1153 11.383 19.44 21.794 29.121 32.731 2.8069 3.1711 4.8984 7.0396 7.9574 9.9056 3.1755 2.975 6.8064 5.9711 10.797 7.4752 12.735 4.8001 25.692 9.0268 38.633 13.264 24.566 8.0445 49.1 16.201 73.798 23.82 19.81 6.111 40.301 10.275 59.656 17.527 21.904 8.2069 45.228 10.096 67.192 17.611 11.605 3.97 23.48 7.185 35.324 10.403 4.7181 1.2816 10.107 0.69562 14.454 2.6227 10.656 4.7244 20.809-0.0635 31.077-0.76404 13.535-0.92328 27.097-2.6974 40.407-5.3243 15.76-3.1106 31.281-7.4481 46.873-11.384 17.364-4.3831 34.729-8.768 52.015-13.443 7.824-2.1162 15.481-4.866 23.173-7.4514 16.501-5.5468 33.046-10.976 49.437-16.833 12.021-4.2946 23.79-9.2866 35.738-13.792 11.496-4.3356 23.152-8.2542 34.597-12.717 8.7462-3.4108 18.16-5.4772 25.522-11.979 0.67255-0.59393 2.5701 0.19928 4.1746 0.47522z"/>
  <path d="m157.93 231.97c8.1946-6.9547 15.951-14.528 24.688-20.717 12.544-8.8858 25.312-17.708 38.914-24.767 10.613-5.5082 22.623-8.3455 34.052-12.253 4.0026-1.3686 5.7852 0.17914 4.4714 4.2937-1.1216 3.513-2.671 7.2602-5.107 9.9173-9.5121 10.376-20.213 19.745-29.021 30.659-9.1029 11.278-16.522 23.915-24.963 36.523-5.3052 7.1384-10.556 13.552-15.242 20.354-2.1681 3.147-3.7698 3.269-6.8092 1.4078-9.0515-5.5428-18.265-10.821-27.436-16.168-3.789-2.2092-7.6292-4.3304-11.648-6.6061 3.2465-5.0189 5.7749-9.6103 8.9792-13.668 2.6232-3.3218 6.0518-6.0076 9.1233-8.9754z"/>
  <path d="m157.65 231.78c-2.7894 3.1579-6.218 5.8437-8.8412 9.1655-3.2043 4.0576-5.7327 8.649-8.9792 13.668 4.0192 2.2757 7.8595 4.3969 11.648 6.6061 9.1707 5.347 18.385 10.625 27.436 16.168 3.0394 1.8612 4.6411 1.7392 6.8092-1.4078 4.6863-6.8022 9.9368-13.216 15.242-20.008 5.2797 3.7058 10.092 7.8997 15.333 11.462 3.5553 2.4168 7.791 3.8109 11.553 5.9584 1.1199 0.63925 1.6677 2.2808 2.4637 3.831-5.3151 10.688-7.018 22.055-9.6235 33.165-0.2011 0.85748-1.1562 1.5382-1.9278 2.494-1.4127-0.19278-2.6585-0.57867-4.3885-1.4782-1.5134-0.83057-2.5427-1.1476-3.5719-1.4646-9.4296-4.5681-18.853-9.1491-28.297-13.688-1.1473-0.55142-2.4035-0.87631-3.9656-1.3604-1.4624-1.1853-2.3921-2.6067-3.7018-3.4028-13.174-8.0078-26.384-15.958-39.657-23.801-2.0978-1.2395-4.5614-1.8598-7.1977-2.7627-8.4581-5.2795-16.58-10.555-24.689-15.848-6.2541-4.0823-6.6304-5.1101-2.9154-11.338 3.9365-6.5994 8.0687-13.089 12.32-19.491 2.9139-4.3873 6.8038-5.6104 11.591-3.2942 11.108 5.3743 22.061 11.07 33.359 16.826z"/>
  <path d="m835.28 638.22c3.9316-3.1272 7.764-6.3956 11.867-9.2782 0.97552-0.68531 3.2064-0.63874 4.2684 0.0218 8.1202 5.0512 15.994 10.501 24.136 15.514 13.181 8.1147 26.796 15.561 39.641 24.166 5.6303 3.7722 9.8569 9.6632 14.641 14.668 6.0872 6.3685 12.093 12.814 19.214 20.373-4.1964 0-7.5817 0.0702-10.962-0.0357-1.291-0.0404-2.6316-0.87628-3.8441-0.6839-12.735 2.0209-23.813-3.0439-34.525-8.5655-20.729-10.685-41.164-21.939-61.734-32.932-2.95-1.5765-6.4759-2.4928-8.7725-4.7113-1.2943-1.2503-0.62097-4.5375-0.41297-7.4296 2.4413-4.0507 4.4615-7.5788 6.4817-11.107z"/>
 </g>
</svg>
