<svg version="1.1" viewBox="0 0 512 512" xmlns="http://www.w3.org/2000/svg">
 <path d="m194.2 107.57c-10.944-10.171-25.621-16.351-41.715-16.351-33.861 0-61.285 27.424-61.285 61.285 0 12.102 3.5406 23.368 9.5916 32.895zm61.8 313.25c32.38 0 62.315-10.686 86.391-28.711l22.66 22.66c8.0469 8.0469 21.115 8.0469 29.162 0 8.0469-8.0469 8.0469-21.115 0-29.162l-22.66-22.66c18.025-24.076 28.711-53.946 28.711-86.391-0.0644-79.567-64.632-144.13-144.27-144.13s-144.2 64.568-144.2 144.2c0 32.38 10.686 62.315 28.711 86.391l-22.66 22.66c-8.0469 8.0469-8.0469 21.115 0 29.162 8.0469 8.0469 21.115 8.0469 29.162 0l22.66-22.66c24.076 18.025 53.946 28.711 86.324 28.711zm155.21-235.36c6.0512-9.5271 9.5916-20.858 9.5916-32.96 0-33.861-27.424-61.285-61.285-61.285-16.094 0-30.771 6.18-41.715 16.351zm-139.76 24.205v60.577l26.394 26.394c6.0512 6.0512 6.0512 15.837 0 21.823-6.0512 5.9868-15.837 6.0512-21.823 0l-30.9-30.9c-2.8969-2.8969-4.5063-6.8238-4.5063-10.944v-66.95c0-8.562 6.8881-15.45 15.45-15.45s15.45 6.8881 15.45 15.45z" fill="#fff" stroke-width=".64375"/>
</svg>
