<svg version="1.1" viewBox="0 0 448 512" xmlns="http://www.w3.org/2000/svg">
 <path d="m348.69 194.74c7.2627-7.2627 7.2627-19.057 0-26.32l-55.777-55.777c-7.2627-7.2627-19.057-7.2627-26.32 0-7.2627 7.2627-7.2627 19.057 0 26.32l24.054 24.054h-178.2c-10.284 0-18.592 8.3085-18.592 18.592s8.3085 18.592 18.592 18.592h178.2l-24.054 24.054c-7.2627 7.2627-7.2627 19.057 0 26.32 7.2627 7.2627 19.057 7.2627 26.32 0l55.777-55.777zm-193.65 204.52c7.2627 7.2627 19.057 7.2627 26.32 0 7.2627-7.2627 7.2627-19.057 0-26.32l-23.996-23.996h178.2c10.284 0 18.592-8.3085 18.592-18.592s-8.3085-18.592-18.592-18.592h-178.2l24.054-24.054c7.2627-7.2627 7.2627-19.057 0-26.32-7.2627-7.2627-19.057-7.2627-26.32 0l-55.777 55.777c-7.2627 7.2627-7.2627 19.057 0 26.32l55.777 55.777z" fill="#fff" stroke-width=".58102"/>
</svg>
