<svg version="1.1" viewBox="0 0 512 512" xmlns="http://www.w3.org/2000/svg">
 <path d="m408.78 103.22c-7.7444-7.7444-20.321-7.7444-28.066 0l-79.302 79.302-9.7889-9.7889c-9.4172-9.4172-23.853-11.4-35.5-4.9564l-20.135 11.152 97.083 96.96 11.152-20.135c6.4433-11.586 4.3988-26.083-4.9564-35.5l-9.7889-9.7889 79.302-79.302c7.7444-7.7444 7.7444-20.321 0-28.066zm-195.22 88.224-106 58.919c-6.2575 3.4695-10.161 10.099-10.161 17.285 0 5.2662 2.1065 10.285 5.7618 14.002l26.765 26.765c1.301 1.3011 3.2836 1.7967 5.0803 1.1772l32.279-10.78c3.9032-1.301 7.5585 2.4162 6.2574 6.2574l-10.78 32.279c-0.61955 1.7967-0.12391 3.7173 1.1772 5.0803l66.478 66.416c3.7173 3.7173 8.7356 5.7618 14.002 5.7618 7.1868 0 13.816-3.9032 17.285-10.161l58.919-106z" fill="#fff" stroke-width=".61955"/>
</svg>
