<svg version="1.1" viewBox="0 0 512 512" xmlns="http://www.w3.org/2000/svg">
 <path d="m412.24 122.56c6.3031-6.3031 6.3031-16.495 0-22.731-6.3031-6.236-16.495-6.3031-22.731 0l-90.523 90.523v-57.734c0-8.9182-7.1748-16.093-16.093-16.093-8.9182 0-16.093 7.1748-16.093 16.093v96.558c0 8.9182 7.1748 16.093 16.093 16.093h96.491c8.9182 0 16.093-7.1748 16.093-16.093s-7.1748-16.093-16.093-16.093h-57.734zm-312.47 266.87c-6.3031 6.3031-6.3031 16.495 0 22.731 6.3031 6.236 16.495 6.3031 22.731 0l90.523-90.523v57.734c0 8.9182 7.1748 16.093 16.093 16.093 8.9182 0 16.093-7.1748 16.093-16.093v-96.558c0-8.9182-7.1748-16.093-16.093-16.093h-96.491c-8.9182 0-16.093 7.1748-16.093 16.093s7.1748 16.093 16.093 16.093h57.734z" fill="#fff" stroke-width=".67054"/>
</svg>
