<svg version="1.1" viewBox="0 0 384 512" xmlns="http://www.w3.org/2000/svg">
 <path d="m245.49 341.58c6.4187-21.329 19.724-39.515 32.896-57.635 3.4768-4.7472 6.9536-9.4942 10.296-14.309 13.238-19.056 20.994-42.122 20.994-67.062 0-65.057-52.687-117.75-117.67-117.75s-117.67 52.687-117.67 117.67c0 24.939 7.7559 48.073 20.994 67.062 3.343 4.8141 6.8199 9.5608 10.296 14.309 13.238 18.12 26.544 36.372 32.896 57.635h106.98zm-53.489 85.583c29.553 0 53.489-23.936 53.489-53.489v-10.698h-106.98v10.698c0 29.553 23.936 53.489 53.489 53.489zm-53.489-224.65c0 5.8838-4.8141 10.698-10.698 10.698-5.8838 0-10.698-4.8141-10.698-10.698 0-41.388 33.498-74.885 74.885-74.885 5.8838 0 10.698 4.8141 10.698 10.698s-4.8141 10.698-10.698 10.698c-29.553 0-53.489 23.936-53.489 53.489z" fill="#fff" stroke-width=".66862"/>
</svg>
