<svg version="1.1" viewBox="0 0 448 512" xmlns="http://www.w3.org/2000/svg">
 <path d="m167.74 105.03c3.421-6.9055 10.453-11.213 18.119-11.213h76.277c7.6657 0 14.698 4.308 18.119 11.213l4.5614 9.0595h60.819c11.213 0 20.273 9.0594 20.273 20.273s-9.0594 20.273-20.273 20.273h-243.27c-11.213 0-20.273-9.0595-20.273-20.273s9.0595-20.273 20.273-20.273h60.819zm-65.38 69.878h243.27v202.73c0 22.364-18.182 40.546-40.546 40.546h-162.18c-22.364 0-40.546-18.182-40.546-40.546zm60.819 40.546c-5.575 0-10.136 4.5614-10.136 10.136v141.91c0 5.575 4.5614 10.136 10.136 10.136s10.136-4.5614 10.136-10.136v-141.91c0-5.575-4.5614-10.136-10.136-10.136zm60.819 0c-5.575 0-10.136 4.5614-10.136 10.136v141.91c0 5.575 4.5614 10.136 10.136 10.136s10.136-4.5614 10.136-10.136v-141.91c0-5.575-4.5614-10.136-10.136-10.136zm60.819 0c-5.575 0-10.136 4.5614-10.136 10.136v141.91c0 5.575 4.5614 10.136 10.136 10.136s10.136-4.5614 10.136-10.136v-141.91c0-5.575-4.5614-10.136-10.136-10.136z" fill="#fff" stroke-width=".63353"/>
</svg>
