<svg version="1.1" viewBox="0 0 512 512" xmlns="http://www.w3.org/2000/svg">
 <path d="m84.407 148.75c0-23.661 19.237-42.898 42.898-42.898h257.39c23.661 0 42.898 19.237 42.898 42.898v214.49c0 23.661-19.237 42.898-42.898 42.898h-257.39c-23.661 0-42.898-19.237-42.898-42.898zm217.04 71.386c-3.0163-4.4239-7.9764-7.038-13.272-7.038-5.2953 0-10.322 2.6141-13.272 7.038l-58.315 85.529-17.763-22.186c-3.0833-3.8206-7.7083-6.0326-12.534-6.0326-4.8261 0-9.5181 2.212-12.534 6.0326l-42.898 53.623c-3.8877 4.8261-4.625 11.462-1.9438 17.025 2.6811 5.5634 8.3116 9.1159 14.478 9.1159h225.22c5.9656 0 11.462-3.2844 14.21-8.5797 2.7482-5.2953 2.413-11.663-0.9384-16.556zm-141.97-7.038a32.174 32.174 0 1 0 0-64.348 32.174 32.174 0 1 0 0 64.348z" fill="#fff" stroke-width=".67029"/>
</svg>
