<svg version="1.1" viewBox="0 0 448 512" xmlns="http://www.w3.org/2000/svg">
 <path d="m160.33 77.848c-15.378 0-27.834 12.456-27.834 27.834v194.84c0 6.1235-5.0101 11.134-11.134 11.134-6.1235 0-11.134-5.0101-11.134-11.134v-38.759c-1.3917 0.97419-2.7138 2.0875-4.0359 3.1313l-13.36 11.134c-10.159 8.4893-16.004 21.015-16.004 34.236v26.442c0 26.442 11.76 51.493 32.079 68.402l3.7576 3.1313c20.04 16.7 45.23 25.816 71.255 25.816h82.18c49.196 0 89.068-39.872 89.068-89.068v-66.732c0-18.44-14.961-33.401-33.401-33.401-8.6285 0-16.422 3.2705-22.337 8.5589-1.3221-17.257-15.726-30.826-33.331-30.826-8.6285 0-16.422 3.2705-22.337 8.5589-1.3221-17.257-15.726-30.826-33.331-30.826-8.5589 0-16.352 3.2009-22.267 8.4893v-103.12c0-15.378-12.456-27.834-27.834-27.834z" fill="#fff" stroke-width=".69585"/>
</svg>
