<svg version="1.1" viewBox="0 0 512 512" xmlns="http://www.w3.org/2000/svg">
 <path d="m256 414.19a158.19 158.19 0 1 0 0-316.38 158.19 158.19 0 1 0 0 316.38zm-74.708-182.04 66.181-61.732c2.3482-2.1628 5.376-3.3986 8.5275-3.3986s6.2411 1.2359 8.5275 3.3986l66.181 61.732c2.7807 2.5953 4.3873 6.2411 4.3873 10.072 0 7.6006-6.1793 13.78-13.78 13.78h-35.655v59.322c0 10.937-8.8364 19.774-19.774 19.774h-19.774c-10.937 0-19.774-8.8365-19.774-19.774v-59.322h-35.655c-7.6006 0-13.78-6.1793-13.78-13.78 0-3.8312 1.6066-7.477 4.3873-10.072z" fill="#fff" stroke-width=".61793"/>
</svg>
