<svg version="1.1" viewBox="0 0 512 512" xmlns="http://www.w3.org/2000/svg">
 <path d="m256 87.51a168.49 168.49 0 1 0 0 336.98 168.49 168.49 0 1 0 0-336.98zm79.572 193.89-70.489 65.75c-2.501 2.3036-5.726 3.6199-9.0826 3.6199s-6.6474-1.3163-9.0826-3.6199l-70.489-65.75c-2.9617-2.7643-4.673-6.6474-4.673-10.728 0-8.0954 6.5816-14.677 14.677-14.677h37.976v-63.184c0-11.649 9.4117-21.061 21.061-21.061h21.061c11.649 0 21.061 9.4117 21.061 21.061v63.184h37.976c8.0954 0 14.677 6.5816 14.677 14.677 0 4.0806-1.7112 7.9638-4.673 10.728z" fill="#fff" stroke-width=".65816"/>
</svg>
