<svg version="1.1" viewBox="0 0 576 512" xmlns="http://www.w3.org/2000/svg">
 <path d="m129.87 120.46c-24.92 0-45.181 20.261-45.181 45.181v180.72c0 24.92 20.261 45.181 45.181 45.181h316.26c24.92 0 45.181-20.261 45.181-45.181v-180.72c0-24.92-20.261-45.181-45.181-45.181zm11.295 45.181h22.59c6.2123 0 11.295 5.0828 11.295 11.295v22.59c0 6.2123-5.0828 11.295-11.295 11.295h-22.59c-6.2123 0-11.295-5.0828-11.295-11.295v-22.59c0-6.2123 5.0828-11.295 11.295-11.295zm-11.295 79.066c0-6.2123 5.0828-11.295 11.295-11.295h22.59c6.2123 0 11.295 5.0828 11.295 11.295v22.59c0 6.2123-5.0828 11.295-11.295 11.295h-22.59c-6.2123 0-11.295-5.0828-11.295-11.295zm11.295 56.476h22.59c6.2123 0 11.295 5.0828 11.295 11.295v22.59c0 6.2123-5.0828 11.295-11.295 11.295h-22.59c-6.2123 0-11.295-5.0828-11.295-11.295v-22.59c0-6.2123 5.0828-11.295 11.295-11.295zm56.476-124.25c0-6.2123 5.0828-11.295 11.295-11.295h22.59c6.2123 0 11.295 5.0828 11.295 11.295v22.59c0 6.2123-5.0828 11.295-11.295 11.295h-22.59c-6.2123 0-11.295-5.0828-11.295-11.295zm11.295 56.476h22.59c6.2123 0 11.295 5.0828 11.295 11.295v22.59c0 6.2123-5.0828 11.295-11.295 11.295h-22.59c-6.2123 0-11.295-5.0828-11.295-11.295v-22.59c0-6.2123 5.0828-11.295 11.295-11.295zm-11.295 79.066c0-6.2123 5.0828-11.295 11.295-11.295h158.13c6.2123 0 11.295 5.0828 11.295 11.295v22.59c0 6.2123-5.0828 11.295-11.295 11.295h-158.13c-6.2123 0-11.295-5.0828-11.295-11.295zm79.066-146.84h22.59c6.2123 0 11.295 5.0828 11.295 11.295v22.59c0 6.2123-5.0828 11.295-11.295 11.295h-22.59c-6.2123 0-11.295-5.0828-11.295-11.295v-22.59c0-6.2123 5.0828-11.295 11.295-11.295zm-11.295 79.066c0-6.2123 5.0828-11.295 11.295-11.295h22.59c6.2123 0 11.295 5.0828 11.295 11.295v22.59c0 6.2123-5.0828 11.295-11.295 11.295h-22.59c-6.2123 0-11.295-5.0828-11.295-11.295zm79.066-79.066h22.59c6.2123 0 11.295 5.0828 11.295 11.295v22.59c0 6.2123-5.0828 11.295-11.295 11.295h-22.59c-6.2123 0-11.295-5.0828-11.295-11.295v-22.59c0-6.2123 5.0828-11.295 11.295-11.295zm-11.295 79.066c0-6.2123 5.0828-11.295 11.295-11.295h22.59c6.2123 0 11.295 5.0828 11.295 11.295v22.59c0 6.2123-5.0828 11.295-11.295 11.295h-22.59c-6.2123 0-11.295-5.0828-11.295-11.295zm79.066-79.066h22.59c6.2123 0 11.295 5.0828 11.295 11.295v22.59c0 6.2123-5.0828 11.295-11.295 11.295h-22.59c-6.2123 0-11.295-5.0828-11.295-11.295v-22.59c0-6.2123 5.0828-11.295 11.295-11.295zm-11.295 79.066c0-6.2123 5.0828-11.295 11.295-11.295h22.59c6.2123 0 11.295 5.0828 11.295 11.295v22.59c0 6.2123-5.0828 11.295-11.295 11.295h-22.59c-6.2123 0-11.295-5.0828-11.295-11.295zm11.295 56.476h22.59c6.2123 0 11.295 5.0828 11.295 11.295v22.59c0 6.2123-5.0828 11.295-11.295 11.295h-22.59c-6.2123 0-11.295-5.0828-11.295-11.295v-22.59c0-6.2123 5.0828-11.295 11.295-11.295z" fill="#fff" stroke-width=".70595"/>
</svg>
