<svg version="1.1" viewBox="0 0 448 512" xmlns="http://www.w3.org/2000/svg">
 <path d="m118.89 108.85c-23.189 0-42.043 18.854-42.043 42.043v210.21c0 23.189 18.854 42.043 42.043 42.043h210.21c23.189 0 42.043-18.854 42.043-42.043v-210.21c0-23.189-18.854-42.043-42.043-42.043zm48.481 87.567c5.1897-14.649 19.116-24.503 34.685-24.503h38.298c22.927 0 41.452 18.591 41.452 41.452 0 14.846-7.9487 28.576-20.824 35.999l-21.219 12.153c-0.13138 8.54-7.1604 15.503-15.766 15.503-8.737 0-15.766-7.029-15.766-15.766v-8.8684c0-5.6495 3.0218-10.839 7.9487-13.664l29.102-16.686c3.0875-1.7737 4.9926-5.0583 4.9926-8.6056 0-5.5181-4.467-9.9195-9.9195-9.9195h-38.298c-2.2335 0-4.2043 1.3795-4.9269 3.4817l-0.26277 0.78831c-2.8904 8.2115-11.956 12.481-20.102 9.591s-12.481-11.956-9.591-20.102l0.26277-0.78831zm35.605 122.65a21.021 21.021 0 1 1 42.043 0 21.021 21.021 0 1 1-42.043 0z" fill="#fff" stroke-width=".65692"/>
</svg>
