<svg version="1.1" viewBox="0 0 640 512" xmlns="http://www.w3.org/2000/svg">
 <path d="m381.74 91.354c-40.968 0-102.9 20.581-102.9 20.581v82.323c30.871 0 48.879 10.29 66.887 20.581 18.008 10.29 36.016 20.581 66.887 20.581 36.273 0 113.19-10.29 113.19-61.742s-82.323-82.323-144.06-82.323zm-185.23 61.742c0 22.703 18.458 41.161 41.161 41.161h20.581v-82.323h-20.581c-22.703 0-41.161 18.458-41.161 41.161zm102.9 267.55c61.742 0 144.06-30.871 144.06-82.323s-76.92-61.742-113.19-61.742c-30.871 0-48.879 10.29-66.887 20.581-18.008 10.29-36.016 20.581-66.887 20.581v82.323s61.935 20.581 102.9 20.581zm-185.23-61.742c0 22.703 18.458 41.161 41.161 41.161h20.581v-82.323h-20.581c-22.703 0-41.161 18.458-41.161 41.161z" fill="#fff" stroke-width=".64315"/>
</svg>
